<svg width="134" height="134" viewBox="0 0 134 134" fill="none" xmlns="http://www.w3.org/2000/svg">
<path opacity="0.2" d="M113.067 25.125H37.6916C37.1417 25.125 36.5972 25.2333 36.0891 25.4437C35.581 25.6542 35.1194 25.9626 34.7306 26.3515C34.3417 26.7403 34.0333 27.202 33.8228 27.71C33.6124 28.2181 33.5041 28.7626 33.5041 29.3125V41.875H96.3166C96.8665 41.875 97.411 41.9833 97.9191 42.1937C98.4271 42.4042 98.8888 42.7126 99.2776 43.1015C99.6665 43.4903 99.9749 43.952 100.185 44.46C100.396 44.9681 100.504 45.5126 100.504 46.0625V92.125H113.067C113.617 92.125 114.161 92.0167 114.669 91.8063C115.177 91.5958 115.639 91.2874 116.028 90.8985C116.416 90.5097 116.725 90.0481 116.935 89.54C117.146 89.032 117.254 88.4874 117.254 87.9375V29.3125C117.254 28.7626 117.146 28.2181 116.935 27.71C116.725 27.202 116.416 26.7403 116.028 26.3515C115.639 25.9626 115.177 25.6542 114.669 25.4437C114.161 25.2333 113.617 25.125 113.067 25.125V25.125Z" fill="black"/>
<path d="M96.3166 41.875H20.9416C18.6289 41.875 16.7541 43.7498 16.7541 46.0625V104.687C16.7541 107 18.6289 108.875 20.9416 108.875H96.3166C98.6293 108.875 100.504 107 100.504 104.687V46.0625C100.504 43.7498 98.6293 41.875 96.3166 41.875Z" stroke="black" stroke-width="2" stroke-linecap="round" stroke-linejoin="round"/>
<path d="M33.5041 41.875V29.3125C33.5041 28.2019 33.9453 27.1368 34.7306 26.3515C35.5159 25.5662 36.581 25.125 37.6916 25.125H113.067C114.177 25.125 115.242 25.5662 116.028 26.3515C116.813 27.1368 117.254 28.2019 117.254 29.3125V87.9375C117.254 89.0481 116.813 90.1132 116.028 90.8985C115.242 91.6838 114.177 92.125 113.067 92.125H100.504" stroke="black" stroke-width="2" stroke-linecap="round" stroke-linejoin="round"/>
<path d="M16.75 58.625H100.5" stroke="black" stroke-width="2" stroke-linecap="round" stroke-linejoin="round"/>
</svg>
