<svg width="134" height="134" viewBox="0 0 134 134" fill="none" xmlns="http://www.w3.org/2000/svg">
<path opacity="0.2" d="M48.1871 92.0691C50.0398 97.3286 53.0358 102.112 56.9595 106.074C60.8831 110.036 65.6366 113.079 70.8777 114.984C76.1188 116.888 81.7169 117.606 87.2689 117.086C92.821 116.567 98.1887 114.822 102.985 111.979L102.985 111.978L116.002 115.697C116.54 115.851 117.11 115.858 117.652 115.718C118.195 115.577 118.689 115.294 119.085 114.898C119.481 114.502 119.764 114.008 119.905 113.465C120.045 112.923 120.038 112.353 119.884 111.815L116.165 98.7983L116.166 98.7985C119.47 93.2257 121.282 86.8953 121.428 80.4182C121.573 73.941 120.047 67.5356 116.996 61.8201C113.946 56.1045 109.473 51.2717 104.011 47.7879C98.5483 44.304 92.2802 42.2868 85.8112 41.9308L85.8124 41.9304C87.8057 47.6142 88.4087 53.6927 87.5709 59.6574C86.7331 65.622 84.4788 71.2992 80.9968 76.2139C77.5148 81.1286 72.9064 85.1378 67.557 87.9061C62.2077 90.6744 56.2732 92.1212 50.25 92.1254C49.5579 92.1254 48.8702 92.1069 48.1871 92.0699V92.0691Z" fill="black"/>
<path d="M17.8343 73.6732C13.1519 65.7798 11.512 56.4485 13.2227 47.4316C14.9334 38.4147 19.877 30.3324 27.1251 24.7025C34.3731 19.0725 43.4272 16.2821 52.587 16.8553C61.7469 17.4285 70.3824 21.3259 76.8721 27.8155C83.3617 34.3051 87.2591 42.9407 87.8323 52.1005C88.4056 61.2603 85.6153 70.3144 79.9853 77.5625C74.3554 84.8106 66.2731 89.7542 57.2562 91.4649C48.2393 93.1757 38.908 91.5359 31.0146 86.8535L31.0147 86.8531L17.9981 90.5721C17.4596 90.726 16.8897 90.7331 16.3475 90.5926C15.8054 90.4521 15.3106 90.1691 14.9146 89.7731C14.5185 89.3771 14.2356 88.8823 14.0951 88.3401C13.9546 87.798 13.9617 87.2281 14.1156 86.6895L17.8346 73.673L17.8343 73.6732Z" stroke="black" stroke-width="2" stroke-linecap="round" stroke-linejoin="round"/>
<path d="M48.1871 92.0687C50.0398 97.3282 53.0358 102.111 56.9595 106.074C60.8831 110.036 65.6366 113.079 70.8777 114.983C76.1188 116.887 81.7169 117.606 87.2689 117.086C92.821 116.566 98.1887 114.822 102.985 111.978L102.985 111.978L116.002 115.697C116.54 115.851 117.11 115.858 117.652 115.717C118.195 115.577 118.689 115.294 119.085 114.898C119.481 114.502 119.764 114.007 119.905 113.465C120.045 112.923 120.038 112.353 119.884 111.814L116.165 98.7979L116.166 98.7981C119.47 93.2253 121.282 86.8949 121.428 80.4178C121.573 73.9406 120.047 67.5352 116.996 61.8197C113.946 56.1041 109.473 51.2713 104.011 47.7875C98.5483 44.3036 92.2802 42.2864 85.8112 41.9304" stroke="black" stroke-width="2" stroke-linecap="round" stroke-linejoin="round"/>
</svg>
