<svg width="134" height="134" viewBox="0 0 134 134" fill="none" xmlns="http://www.w3.org/2000/svg">
<path opacity="0.2" d="M104.688 80.0131L85.4265 99.2742C84.9152 99.7855 84.2802 100.156 83.5833 100.349C82.8864 100.542 82.1514 100.551 81.4499 100.376L51.113 92.7914C50.544 92.6492 50.0112 92.389 49.5492 92.0277L20.9375 69.6544L37.9881 37.5772L64.851 29.7457C65.8106 29.466 66.8386 29.5387 67.7492 29.9508L85.8438 38.1381H75.0158C74.4659 38.1381 73.9213 38.2465 73.4133 38.4569C72.9052 38.6673 72.4436 38.9758 72.0548 39.3646L51.5703 59.8491C51.1461 60.2733 50.818 60.7837 50.6082 61.3458C50.3984 61.9079 50.3118 62.5085 50.3544 63.1069C50.3969 63.7054 50.5675 64.2877 50.8547 64.8145C51.1419 65.3412 51.5389 65.8001 52.0188 66.1601L54.8563 68.2882C57.7556 70.4627 61.282 71.6381 64.9062 71.6381C68.5305 71.6381 72.0569 70.4627 74.9562 68.2882L81.6562 63.2631L104.688 80.0131Z" fill="black"/>
<path d="M126.001 63.7471L113.062 70.2162L96.3125 38.1389L109.382 31.604C110.364 31.113 111.5 31.0273 112.544 31.3653C113.589 31.7033 114.459 32.4379 114.967 33.4111L127.84 58.0634C128.097 58.5564 128.254 59.0957 128.301 59.6498C128.347 60.2039 128.283 60.7618 128.112 61.2909C127.941 61.82 127.666 62.3097 127.303 62.7314C126.941 63.1531 126.498 63.4984 126.001 63.7471V63.7471Z" stroke="black" stroke-width="2" stroke-linecap="round" stroke-linejoin="round"/>
<path d="M20.9374 69.6549L7.99924 63.1859C7.50185 62.9372 7.05897 62.5919 6.69646 62.1702C6.33394 61.7485 6.05906 61.2588 5.88785 60.7297C5.71664 60.2006 5.65253 59.6427 5.69926 59.0885C5.74599 58.5344 5.90263 57.9951 6.16004 57.5022L19.0329 32.8498C19.5411 31.8767 20.4111 31.142 21.4556 30.804C22.5001 30.466 23.6356 30.5517 24.6175 31.0427L37.6874 37.5776L20.9374 69.6549Z" stroke="black" stroke-width="2" stroke-linecap="round" stroke-linejoin="round"/>
<path d="M113.062 70.216L104.688 80.0138L85.4265 99.2747C84.9152 99.7861 84.2802 100.156 83.5833 100.349C82.8864 100.542 82.1514 100.552 81.4499 100.376L51.113 92.792C50.544 92.6497 50.0112 92.3895 49.5492 92.0282L20.9375 69.655" stroke="black" stroke-width="2" stroke-linecap="round" stroke-linejoin="round"/>
<path d="M104.687 80.0134L81.6562 63.2634L74.9562 68.2884C72.0569 70.463 68.5304 71.6384 64.9062 71.6384C61.282 71.6384 57.7556 70.463 54.8562 68.2884L52.0188 66.1604C51.5388 65.8004 51.1418 65.3415 50.8547 64.8147C50.5675 64.288 50.3969 63.7057 50.3543 63.1072C50.3118 62.5088 50.3984 61.9082 50.6082 61.3461C50.818 60.784 51.1461 60.2736 51.5703 59.8494L72.0547 39.3649C72.4436 38.9761 72.9052 38.6676 73.4133 38.4572C73.9213 38.2467 74.4658 38.1384 75.0157 38.1384H96.3125" stroke="black" stroke-width="2" stroke-linecap="round" stroke-linejoin="round"/>
<path d="M37.988 37.5771L64.8508 29.7457C65.8104 29.466 66.8385 29.5387 67.7491 29.9508L85.8436 38.1382" stroke="black" stroke-width="2" stroke-linecap="round" stroke-linejoin="round"/>
<path d="M58.625 111.42L42.8489 107.476C42.2087 107.316 41.6154 107.007 41.1174 106.574L29.3125 96.3125" stroke="black" stroke-width="2" stroke-linecap="round" stroke-linejoin="round"/>
</svg>
