<svg width="149" height="94" viewBox="0 0 149 94" fill="none" xmlns="http://www.w3.org/2000/svg">
<path opacity="0.2" d="M126.046 15.9171C126.423 15.9171 126.796 15.9914 127.144 16.1355C127.493 16.2797 127.809 16.4911 128.075 16.7575C128.342 17.0239 128.553 17.3403 128.697 17.6884C128.841 18.0365 128.916 18.4096 128.916 18.7864L128.915 34.0989C130.446 33.3739 132.135 33.0479 133.826 33.1511C135.516 33.2542 137.153 33.7833 138.584 34.689C140.015 35.5947 141.194 36.8476 142.011 38.3313C142.828 39.8149 143.256 41.481 143.256 43.1746C143.256 44.8683 142.828 46.5344 142.011 48.018C141.194 49.5017 140.015 50.7546 138.584 51.6603C137.153 52.566 135.516 53.0951 133.826 53.1982C132.135 53.3014 130.446 52.9754 128.915 52.2504L128.916 67.5629C128.916 67.9397 128.841 68.3128 128.697 68.6609C128.553 69.0091 128.342 69.3254 128.075 69.5918C127.809 69.8582 127.492 70.0696 127.144 70.2138C126.796 70.358 126.423 70.4322 126.046 70.4322L109.299 70.432C110.024 71.9626 110.35 73.6517 110.247 75.3422C110.144 77.0327 109.615 78.6696 108.709 80.1008C107.803 81.5319 106.551 82.7107 105.067 83.5275C103.583 84.3444 101.917 84.7727 100.224 84.7727C98.5299 84.7727 96.8638 84.3444 95.3801 83.5275C93.8965 82.7107 92.6436 81.5319 91.7379 80.1007C90.8322 78.6696 90.3031 77.0327 90.2 75.3422C90.0968 73.6517 90.4228 71.9626 91.1478 70.432L74.4007 70.4322C73.6398 70.4322 72.91 70.1299 72.3719 69.5918C71.8338 69.0537 71.5315 68.3239 71.5315 67.563L71.5313 52.2504C73.0619 52.9754 74.7511 53.3014 76.4415 53.1982C78.132 53.0951 79.769 52.566 81.2001 51.6603C82.6312 50.7546 83.81 49.5017 84.6269 48.018C85.4437 46.5344 85.8721 44.8683 85.8721 43.1746C85.8721 41.481 85.4437 39.8149 84.6269 38.3313C83.81 36.8476 82.6312 35.5947 81.2001 34.689C79.769 33.7833 78.132 33.2542 76.4416 33.1511C74.7511 33.0479 73.0619 33.3739 71.5313 34.0989L71.5315 18.7863C71.5315 18.0254 71.8338 17.2956 72.3719 16.7575C72.91 16.2194 73.6397 15.9171 74.4007 15.9171L126.046 15.9171Z" fill="black"/>
<path d="M126.046 15.9171C126.423 15.9171 126.796 15.9914 127.144 16.1355C127.493 16.2797 127.809 16.4911 128.075 16.7575C128.342 17.0239 128.553 17.3403 128.697 17.6884C128.841 18.0365 128.916 18.4096 128.916 18.7864L128.915 34.0989C130.446 33.3739 132.135 33.0479 133.826 33.1511C135.516 33.2542 137.153 33.7833 138.584 34.689C140.015 35.5947 141.194 36.8476 142.011 38.3313C142.828 39.8149 143.256 41.481 143.256 43.1746C143.256 44.8683 142.828 46.5344 142.011 48.018C141.194 49.5017 140.015 50.7546 138.584 51.6603C137.153 52.566 135.516 53.0951 133.826 53.1982C132.135 53.3014 130.446 52.9754 128.915 52.2504L128.916 67.5629C128.916 67.9397 128.841 68.3128 128.697 68.6609C128.553 69.0091 128.342 69.3254 128.075 69.5918C127.809 69.8582 127.492 70.0696 127.144 70.2138C126.796 70.358 126.423 70.4322 126.046 70.4322L109.299 70.432C110.024 71.9626 110.35 73.6517 110.247 75.3422C110.144 77.0327 109.615 78.6696 108.709 80.1008C107.803 81.5319 106.551 82.7107 105.067 83.5275C103.583 84.3444 101.917 84.7727 100.224 84.7727C98.5299 84.7727 96.8638 84.3444 95.3801 83.5275C93.8965 82.7107 92.6436 81.5319 91.7379 80.1007C90.8322 78.6696 90.3031 77.0327 90.2 75.3422C90.0968 73.6517 90.4228 71.9626 91.1478 70.432L74.4007 70.4322C73.6398 70.4322 72.91 70.1299 72.3719 69.5918C71.8338 69.0537 71.5315 68.3239 71.5315 67.563L71.5313 52.2504C73.0619 52.9754 74.7511 53.3014 76.4415 53.1982C78.132 53.0951 79.769 52.566 81.2001 51.6603C82.6312 50.7546 83.81 49.5017 84.6269 48.018C85.4437 46.5344 85.8721 44.8683 85.8721 43.1746C85.8721 41.481 85.4437 39.8149 84.6269 38.3313C83.81 36.8476 82.6312 35.5947 81.2001 34.689C79.769 33.7833 78.132 33.2542 76.4416 33.1511C74.7511 33.0479 73.0619 33.3739 71.5313 34.0989L71.5315 18.7863C71.5315 18.0254 71.8338 17.2956 72.3719 16.7575C72.91 16.2194 73.6397 15.9171 74.4007 15.9171L126.046 15.9171Z" stroke="black" stroke-width="2" stroke-linecap="round" stroke-linejoin="round"/>
<path d="M0.999982 18.0981C0.999982 17.7237 1.07384 17.353 1.21732 17.0072C1.36081 16.6613 1.57112 16.3471 1.83625 16.0824C2.10138 15.8177 2.41614 15.6077 2.76255 15.4645C3.10896 15.3212 3.48023 15.2475 3.85518 15.2475L19.0927 15.2477C18.3713 13.727 18.0469 12.0488 18.1495 10.3693C18.2522 8.68977 18.7787 7.06346 19.6799 5.64163C20.5812 4.2198 21.828 3.04865 23.3044 2.2371C24.7807 1.42556 26.4387 0.999998 28.1241 0.999998C29.8094 0.999998 31.4674 1.42556 32.9438 2.2371C34.4201 3.04865 35.6669 4.2198 36.5682 5.64163C37.4695 7.06346 37.9959 8.68977 38.0986 10.3693C38.2013 12.0488 37.8768 13.727 37.1554 15.2477L52.3929 15.2475C52.7679 15.2475 53.1392 15.3212 53.4856 15.4645C53.832 15.6077 54.1468 15.8177 54.4119 16.0824C54.677 16.3471 54.8873 16.6614 55.0308 17.0072C55.1743 17.3531 55.2482 17.7238 55.2482 18.0981L55.248 34.7365C56.7711 34.0162 58.452 33.6923 60.1342 33.7948C61.8164 33.8973 63.4453 34.4229 64.8694 35.3227C66.2935 36.2225 67.4666 37.4673 68.2794 38.9413C69.0922 40.4153 69.5185 42.0706 69.5185 43.7533C69.5185 45.4359 69.0922 47.0912 68.2794 48.5652C67.4666 50.0392 66.2935 51.284 64.8694 52.1839C63.4453 53.0837 61.8164 53.6093 60.1342 53.7118C58.452 53.8143 56.7711 53.4903 55.248 52.7701L55.2481 69.4084C55.2482 70.1645 54.9474 70.8895 54.4119 71.4241C53.8765 71.9587 53.1503 72.259 52.393 72.2591L37.1554 72.2592C37.8768 70.7385 38.2013 69.0604 38.0986 67.3809C37.9959 65.7014 37.4695 64.075 36.5682 62.6532C35.6669 61.2314 34.4201 60.0602 32.9438 59.2487C31.4674 58.4371 29.8094 58.0116 28.1241 58.0116C26.4387 58.0116 24.7808 58.4371 23.3044 59.2487C21.828 60.0602 20.5812 61.2314 19.6799 62.6532C18.7787 64.075 18.2522 65.7014 18.1495 67.3809C18.0469 69.0604 18.3713 70.7385 19.0927 72.2592L3.85511 72.2591C3.09788 72.259 2.37167 71.9587 1.83623 71.4241C1.30079 70.8895 0.999985 70.1645 0.999985 69.4085L0.999982 18.0981Z" stroke="black" stroke-width="2" stroke-linecap="round" stroke-linejoin="round"/>
</svg>
