<svg width="134" height="134" viewBox="0 0 134 134" fill="none" xmlns="http://www.w3.org/2000/svg">
<path opacity="0.2" d="M46.0624 70.5972L117.309 19.1415L117.31 19.1396C116.8 18.9058 116.249 18.7782 115.689 18.7647C115.129 18.7512 114.572 18.852 114.052 19.061L17.4482 57.0126C16.6062 57.3434 15.8941 57.9378 15.4182 58.7071C14.9423 59.4764 14.7283 60.3791 14.8082 61.2801C14.8881 62.1811 15.2577 63.0321 15.8615 63.7055C16.4654 64.379 17.2711 64.8389 18.1581 65.0163L46.0624 70.5972Z" fill="black"/>
<path opacity="0.2" d="M69.5685 91.2824L53.211 107.64C52.6254 108.226 51.8792 108.624 51.0669 108.786C50.2547 108.948 49.4127 108.865 48.6475 108.548C47.8824 108.231 47.2284 107.694 46.7682 107.005C46.3081 106.317 46.0625 105.507 46.0625 104.679V70.5971L69.5685 91.2824Z" fill="black"/>
<path d="M46.0624 70.5973L93.1285 112.015C93.6731 112.495 94.3328 112.824 95.043 112.972C95.7532 113.119 96.4896 113.08 97.18 112.857C97.8704 112.635 98.4911 112.236 98.9814 111.702C99.4716 111.167 99.8145 110.514 99.9766 109.807L119.665 23.8941C119.835 23.1512 119.8 22.3761 119.562 21.6521C119.324 20.928 118.893 20.2826 118.316 19.7854C117.738 19.2882 117.036 18.9579 116.285 18.8303C115.533 18.7027 114.761 18.7825 114.052 19.0612L17.4482 57.0127C16.6062 57.3435 15.8941 57.938 15.4182 58.7072C14.9423 59.4765 14.7283 60.3792 14.8082 61.2802C14.8881 62.1812 15.2577 63.0322 15.8615 63.7057C16.4654 64.3792 17.2711 64.839 18.1581 65.0164L46.0624 70.5973Z" stroke="black" stroke-width="2" stroke-linecap="round" stroke-linejoin="round"/>
<path d="M46.0625 70.5974L117.309 19.1418" stroke="black" stroke-width="2" stroke-linecap="round" stroke-linejoin="round"/>
<path d="M69.5685 91.2824L53.211 107.64C52.6254 108.226 51.8792 108.624 51.0669 108.786C50.2547 108.948 49.4127 108.865 48.6475 108.548C47.8824 108.231 47.2284 107.694 46.7682 107.005C46.3081 106.317 46.0625 105.507 46.0625 104.679V70.5971" stroke="black" stroke-width="2" stroke-linecap="round" stroke-linejoin="round"/>
</svg>
