<svg width="134" height="134" viewBox="0 0 134 134" fill="none" xmlns="http://www.w3.org/2000/svg">
<path d="M100.5 62.8125H114.662C115.44 62.8125 116.202 62.5959 116.863 62.1871C117.525 61.7783 118.06 61.1933 118.407 60.4977L128.041 41.2306C128.52 40.2732 128.614 39.1689 128.303 38.1444C127.993 37.12 127.302 36.2532 126.373 35.7221L100.5 20.9375" stroke="black" stroke-width="2" stroke-linecap="round" stroke-linejoin="round"/>
<path d="M33.5001 62.8125H19.3381C18.5604 62.8125 17.7981 62.5959 17.1366 62.1871C16.4751 61.7783 15.9405 61.1933 15.5927 60.4977L5.95915 41.2306C5.48046 40.2732 5.38656 39.1689 5.69674 38.1444C6.00692 37.12 6.69763 36.2532 7.62698 35.7221L33.5001 20.9375" stroke="black" stroke-width="2" stroke-linecap="round" stroke-linejoin="round"/>
<path opacity="0.2" d="M100.5 62.8125H114.662C115.44 62.8125 116.202 62.5959 116.863 62.1871C117.525 61.7783 118.06 61.1933 118.407 60.4977L128.041 41.2306C128.52 40.2732 128.614 39.1689 128.303 38.1444C127.993 37.12 127.302 36.2532 126.373 35.7221L100.5 20.9375V62.8125Z" fill="black"/>
<path opacity="0.2" d="M33.5001 62.8125H19.3381C18.5604 62.8125 17.7981 62.5959 17.1366 62.1871C16.4751 61.7783 15.9405 61.1933 15.5927 60.4977L5.95915 41.2306C5.48046 40.2732 5.38656 39.1689 5.69674 38.1444C6.00692 37.12 6.69763 36.2532 7.62698 35.7221L33.5001 20.9375V62.8125Z" fill="black"/>
<path d="M83.75 20.9375C83.75 25.3799 81.9853 29.6403 78.844 32.7815C75.7028 35.9228 71.4424 37.6875 67 37.6875C62.5576 37.6875 58.2972 35.9228 55.156 32.7815C52.0147 29.6403 50.25 25.3799 50.25 20.9375H33.5V108.875C33.5 109.986 33.9412 111.051 34.7265 111.836C35.5118 112.621 36.5769 113.062 37.6875 113.062H96.3125C97.4231 113.062 98.4882 112.621 99.2735 111.836C100.059 111.051 100.5 109.986 100.5 108.875V20.9375H83.75Z" stroke="black" stroke-width="2" stroke-linecap="round" stroke-linejoin="round"/>
</svg>
